{"title":"Death Race 2000 1975 BRRip H264 LKRG","uid":5653908,"size":1271407271,"categoryP":"video","categoryS":"movies","magnet":"?xt=urn:btih:4d0adeea6055a75ef628abc066d8d105abc99849&amp;dn=Death+Race+2000+1975+BRRip+H264+LKRG&amp;tr=udp%3A%2F%2Ftracker.openbittorrent.com%3A80&amp;tr=udp%3A%2F%2Fopen.demonii.com%3A1337&amp;tr=udp%3A%2F%2Ftracker.coppersurfer.tk%3A6969&amp;tr=udp%3A%2F%2Fexodus.desync.com%3A6969","seeders":4,"leechers":0,"uploader":"hiest","files":1,"time":1277725106,"description":"File Name\n\nDeath Race 2000 1975 BRRip H264 LKRG-Wrath.mp4\n\nFile Size\nFormat : MPEG-4\nFormat profile : Base Media\nCodec ID : isom\nFile size : 1.18 GiB\nDuration : 1h 19mn\nOverall bit rate : 2 129 Kbps\n\nVideo\nID : 1\nFormat : AVC\nFormat/Info : Advanced Video Codec\nFormat profile : &lt;a class=&quot;__cf_email__&quot; href=&quot;/cdn-cgi/l/email-protection&quot; data-cfemail=&quot;256d4c424d6569110b14&quot;&gt;[email&amp;#160;protected]&lt;/a&gt;&lt;script cf-hash='f9e31' type=&quot;text/javascript&quot;&gt;\n/* &lt;![CDATA[ */!function(){try{var t=&quot;currentScript&quot;in document?document.currentScript:function(){for(var t=document.getElementsByTagName(&quot;script&quot;),e=t.length;e--;)if(t[e].getAttribute(&quot;cf-hash&quot;))return t[e]}();if(t&amp;&amp;t.previousSibling){var e,r,n,i,c=t.previousSibling,a=c.getAttribute(&quot;data-cfemail&quot;);if(a){for(e=&quot;&quot;,r=parseInt(a.substr(0,2),16),n=2;a.length-n;n+=2)i=parseInt(a.substr(n,2),16)^r,e+=String.fromCharCode(i);e=document.createTextNode(e),c.parentNode.replaceChild(e,c)}}}catch(u){}}();/* ]]&gt; */&lt;/script&gt;\nFormat settings, CABAC : Yes\nFormat settings, ReFrames : 3 frames\nCodec ID : avc1\nCodec ID/Info : Advanced Video Coding\nDuration : 1h 19mn\nBit rate mode : Variable\nBit rate : 1 998 Kbps\nMaximum bit rate : 7 248 Kbps\nWidth : 1 280 pixels\nHeight : 720 pixels\nDisplay aspect ratio : 16:9\nFrame rate mode : Constant\nFrame rate : 23.976 fps\nResolution : 24 bits\nColorimetry : 4:2:0\nScan type : Progressive\nBits/(Pixel*Frame) : 0.090\nStream size : 1.11 GiB (94%)\n\nAudio \nID : 2\nFormat : AAC\nFormat/Info : Advanced Audio Codec\nFormat version : Version 4\nFormat profile : LC\nFormat settings, SBR : No\nCodec ID : 40\nDuration : 1h 19mn\nBit rate mode : Variable\nBit rate : 128 Kbps\nMaximum bit rate : 132 Kbps\nChannel(s) : 2 channels\nChannel positions : L R\nSampling rate : 48.0 KHz\nResolution : 16 bits\nStream size : 72.9 MiB (6%)\n\nEnglish SRT : N/A\n\nLanguage : English\n\n &lt;a href=&quot;\nhttp://www.imdb.com/title/tt0072856/&quot; rel=&quot;nofollow&quot; target=&quot;_NEW&quot;&gt;\nhttp://www.imdb.com/title/tt0072856/&lt;/a&gt;\n\nRelease Date: 27 April 1975 (USA) \n\nGenre: Action | Sci-Fi | Sport \n\nPlot: n the near future the ultimate sporting event is the deathrace. Contestants get score points for running people down as they speed across the country. The sport has crazed fans who sacrifice themselves to the drivers. An overt agency is trying to bring an end to the immoral deathrace and has infiltrated one of their followers in to the race as a navigator. In the end of the race the lives of the competitors, the President and the deathrace itself are in peril.\n\nCast: \nDavid Carradine ... Frankenstein\nSimone Griffeth ... Annie Smith\nSylvester Stallone ... Machine Gun Joe Viterbo\nMary Woronov ... Calamity Jane\nRoberta Collins ... Matilda the Hun\nMartin Kove ... Nero the Hero\nLouisa Moritz ... Myra\nDon Steele ... Junior Bruce (as The Real Don Steele)\nJoyce Jameson ... Grace Pander\nCarle Bensen ... Harold\nSandy McCallum ... Mr. President\nPaul Laurence ... Special Agent\nHarriet Medin ... Thomasina Paine\nVince Trankina ... Lt. Fury\nBill Morey ... Deacon","torrent":{"xt":"urn:btih:4d0adeea6055a75ef628abc066d8d105abc99849","amp;dn":"Death+Race+2000+1975+BRRip+H264+LKRG","amp;tr":["udp%3A%2F%2Ftracker.openbittorrent.com%3A80","udp%3A%2F%2Fopen.demonii.com%3A1337","udp%3A%2F%2Ftracker.coppersurfer.tk%3A6969","udp%3A%2F%2Fexodus.desync.com%3A6969"],"infoHash":"4d0adeea6055a75ef628abc066d8d105abc99849","infoHashBuffer":{"type":"Buffer","data":[77,10,222,234,96,85,167,94,246,40,171,192,102,216,209,5,171,201,152,73]},"announce":[],"urlList":[]}}